<?xml version="1.0" standalone="no"?>
<!DOCTYPE svg PUBLIC "-//W3C//DTD SVG 20010904//EN"
 "http://www.w3.org/TR/2001/REC-SVG-20010904/DTD/svg10.dtd">
<svg version="1.0" xmlns="http://www.w3.org/2000/svg"
 width="207.000000pt" height="207.000000pt" viewBox="0 0 207.000000 207.000000"
 preserveAspectRatio="xMidYMid meet">
<metadata>
Created by potrace 1.14, written by Peter Selinger 2001-2017
</metadata>
<g transform="translate(0.000000,207.000000) scale(0.100000,-0.100000)"
fill="#000000" stroke="none">
<path d="M130 1973 c-40 -15 -40 -11 -40 -735 l0 -698 195 0 195 0 -2 718 -3
717 -165 2 c-91 1 -172 -1 -180 -4z m249 -1180 c23 -28 20 -59 -7 -80 -10 -8
-46 -13 -93 -13 -69 0 -80 3 -93 22 -21 30 -20 54 4 78 16 16 33 20 94 20 69
0 76 -2 95 -27z"/>
<path d="M590 1260 l0 -720 190 0 190 0 0 720 0 720 -190 0 -190 0 0 -720z
m284 -302 c40 -57 4 -88 -101 -88 -63 0 -74 3 -87 22 -40 57 -4 88 101 88 63
0 74 -3 87 -22z"/>
<path d="M1087 1973 c-4 -3 -7 -327 -7 -720 l0 -713 195 0 195 0 0 720 0 720
-188 0 c-104 0 -192 -3 -195 -7z m289 -858 c15 -23 15 -27 0 -50 -15 -23 -22
-25 -101 -25 -90 0 -105 8 -105 59 0 30 27 40 112 41 72 0 79 -2 94 -25z"/>
<path d="M1580 1260 l0 -720 195 0 195 0 0 698 c0 383 -4 702 -8 709 -16 25
-69 33 -223 33 l-159 0 0 -720z m284 34 c23 -22 20 -60 -6 -78 -32 -22 -145
-22 -170 1 -23 21 -24 69 0 82 29 17 158 14 176 -5z"/>
<path d="M90 275 c0 -142 1 -155 19 -165 12 -6 93 -10 195 -10 l176 0 0 165 0
165 -195 0 -195 0 0 -155z"/>
<path d="M590 265 l0 -165 190 0 190 0 0 165 0 165 -190 0 -190 0 0 -165z"/>
<path d="M1087 423 c-4 -3 -7 -78 -7 -165 l0 -158 195 0 195 0 0 165 0 165
-188 0 c-104 0 -192 -3 -195 -7z"/>
<path d="M1580 265 l0 -165 178 0 c161 0 181 2 195 18 14 16 17 43 17 165 l0
147 -195 0 -195 0 0 -165z"/>
</g>
</svg>
